<svg id="visual" viewBox="0 0 1920 1080" width="1920" height="1080" xmlns="http://www.w3.org/2000/svg" xmlns:xlink="http://www.w3.org/1999/xlink" version="1.1"><rect x="0" y="0" width="1920" height="1080" fill="#171717"></rect><path d="M0 546L53.3 539.8C106.7 533.7 213.3 521.3 320 537.7C426.7 554 533.3 599 640 629.2C746.7 659.3 853.3 674.7 960 679.7C1066.7 684.7 1173.3 679.3 1280 690.3C1386.7 701.3 1493.3 728.7 1600 729.2C1706.7 729.7 1813.3 703.3 1866.7 690.2L1920 677L1920 1081L1866.7 1081C1813.3 1081 1706.7 1081 1600 1081C1493.3 1081 1386.7 1081 1280 1081C1173.3 1081 1066.7 1081 960 1081C853.3 1081 746.7 1081 640 1081C533.3 1081 426.7 1081 320 1081C213.3 1081 106.7 1081 53.3 1081L0 1081Z" fill="#171717"></path><path d="M0 763L53.3 750.8C106.7 738.7 213.3 714.3 320 715.3C426.7 716.3 533.3 742.7 640 741.3C746.7 740 853.3 711 960 712.2C1066.7 713.3 1173.3 744.7 1280 730.8C1386.7 717 1493.3 658 1600 651.5C1706.7 645 1813.3 691 1866.7 714L1920 737L1920 1081L1866.7 1081C1813.3 1081 1706.7 1081 1600 1081C1493.3 1081 1386.7 1081 1280 1081C1173.3 1081 1066.7 1081 960 1081C853.3 1081 746.7 1081 640 1081C533.3 1081 426.7 1081 320 1081C213.3 1081 106.7 1081 53.3 1081L0 1081Z" fill="#a18c2f"></path><path d="M0 697L53.3 722.5C106.7 748 213.3 799 320 810.8C426.7 822.7 533.3 795.3 640 784C746.7 772.7 853.3 777.3 960 776C1066.7 774.7 1173.3 767.3 1280 752.5C1386.7 737.7 1493.3 715.3 1600 727.5C1706.7 739.7 1813.3 786.3 1866.7 809.7L1920 833L1920 1081L1866.7 1081C1813.3 1081 1706.7 1081 1600 1081C1493.3 1081 1386.7 1081 1280 1081C1173.3 1081 1066.7 1081 960 1081C853.3 1081 746.7 1081 640 1081C533.3 1081 426.7 1081 320 1081C213.3 1081 106.7 1081 53.3 1081L0 1081Z" fill="#ffdd33"></path><path d="M0 870L53.3 871.8C106.7 873.7 213.3 877.3 320 885.5C426.7 893.7 533.3 906.3 640 891.7C746.7 877 853.3 835 960 828.7C1066.7 822.3 1173.3 851.7 1280 875C1386.7 898.3 1493.3 915.7 1600 920C1706.7 924.3 1813.3 915.7 1866.7 911.3L1920 907L1920 1081L1866.7 1081C1813.3 1081 1706.7 1081 1600 1081C1493.3 1081 1386.7 1081 1280 1081C1173.3 1081 1066.7 1081 960 1081C853.3 1081 746.7 1081 640 1081C533.3 1081 426.7 1081 320 1081C213.3 1081 106.7 1081 53.3 1081L0 1081Z" fill="#a18c2f"></path><path d="M0 973L53.3 973.5C106.7 974 213.3 975 320 972.5C426.7 970 533.3 964 640 951.8C746.7 939.7 853.3 921.3 960 926.3C1066.7 931.3 1173.3 959.7 1280 976.7C1386.7 993.7 1493.3 999.3 1600 998.8C1706.7 998.3 1813.3 991.7 1866.7 988.3L1920 985L1920 1081L1866.7 1081C1813.3 1081 1706.7 1081 1600 1081C1493.3 1081 1386.7 1081 1280 1081C1173.3 1081 1066.7 1081 960 1081C853.3 1081 746.7 1081 640 1081C533.3 1081 426.7 1081 320 1081C213.3 1081 106.7 1081 53.3 1081L0 1081Z" fill="#171717"></path></svg>