<svg width="1024" height="1024" viewBox="0 0 1024 1024" xmlns="http://www.w3.org/2000/svg">
    <defs>
        <linearGradient id="logogradient_stop">
            <stop style="stop-color:#25e435;stop-opacity:1;" offset="0" />
            <stop style="stop-color:#2681fe;stop-opacity:1;" offset="1" />
        </linearGradient>
        <linearGradient id="bggradient_stop">
            <stop style="stop-color:#000000;stop-opacity:1;" offset="0" />
            <stop style="stop-color:#343432;stop-opacity:1;" offset="1" />
        </linearGradient>
        <linearGradient href="#bggradient_stop" id="bggradient" x1="0%" y1="50%" x2="100%" y2="50%" />
        <linearGradient href="#logogradient_stop" id="logogradient" x1="50%" y1="75%" x2="25%" y2="25%" />
    </defs>
    <g>
        <circle style="opacity:1;fill:url(#bggradient);fill-opacity:1;stroke-width:1;stroke-dasharray:none"
            cx="50%" cy="50%" r="512" />
        <path
            d="M538 795 809 647V378L538 476ZM511 429 806 322 511 214 216 322ZM863 323V647C863 667 852 685 835 694L537 857C530 861 521 864 512 864 503 864 494 862 487 857L189 694C172 685 161 667 161 647V323C161 300 175 280 196 272L494 164C500 162 506 160 512 160 518 160 524 161 530 164L828 272C849 280 863 300 863 323Z"
            style="opacity:1;fill:url(#logogradient);fill-opacity:1;stroke-width:1;stroke-dasharray:none;" />
    </g>
</svg>