<?xml version="1.0" standalone="no"?>
<!DOCTYPE svg PUBLIC "-//W3C//DTD SVG 20010904//EN"
 "http://www.w3.org/TR/2001/REC-SVG-20010904/DTD/svg10.dtd">
<svg version="1.0" xmlns="http://www.w3.org/2000/svg"
 width="700.000000pt" height="700.000000pt" viewBox="0 0 700.000000 700.000000"
 preserveAspectRatio="xMidYMid meet">
<metadata>
Created by potrace 1.14, written by Peter Selinger 2001-2017
</metadata>
<g transform="translate(0.000000,700.000000) scale(0.100000,-0.100000)"
fill="#000000" stroke="none">
<path d="M765 6994 c-11 -2 -45 -9 -75 -15 -306 -59 -557 -294 -657 -616 l-28
-88 -2 -2750 c-2 -1677 1 -2764 6 -2785 6 -19 12 -48 15 -65 13 -81 74 -216
141 -310 112 -157 271 -269 472 -332 l88 -28 2745 -2 c2937 -3 2798 -5 2940
45 280 98 508 349 566 623 2 13 9 44 14 69 11 53 8 5512 -3 5551 -44 160 -82
247 -151 343 -117 163 -284 278 -491 340 l-70 20 -2745 2 c-1510 1 -2754 0
-2765 -2z m3775 -1539 l0 -724 63 25 c34 15 71 30 82 35 98 41 304 69 480 64
159 -4 177 -6 291 -35 383 -98 669 -435 779 -915 25 -110 27 -118 31 -150 2
-16 6 -43 9 -59 24 -141 24 -496 -1 -661 -21 -144 -77 -336 -135 -460 -32 -70
-107 -200 -138 -238 -231 -289 -506 -432 -931 -482 -100 -12 -404 -7 -565 9
-16 2 -60 7 -97 10 -37 4 -75 8 -85 10 -18 4 -115 18 -143 21 -53 6 -123 21
-252 52 l-148 36 0 2028 c0 1116 1 2029 3 2029 2 0 28 4 58 10 30 5 70 12 89
15 19 3 61 10 92 16 32 5 70 12 85 15 16 2 44 7 63 10 19 4 44 8 55 10 68 10
102 16 113 20 8 2 35 7 60 10 26 3 63 9 82 14 19 4 41 8 48 9 9 1 12 -150 12
-724z m-2460 -605 c30 -5 73 -11 95 -14 255 -32 509 -182 643 -379 129 -189
197 -429 218 -772 5 -74 9 -1730 5 -1766 -1 -3 -171 -5 -378 -5 l-378 1 -1
805 c-1 735 -5 950 -19 1035 -59 353 -164 449 -485 447 -69 -1 -134 -3 -145
-6 -11 -2 -53 -7 -92 -11 l-73 -7 0 -1134 0 -1134 -30 -1 c-16 0 -178 0 -360
0 -181 0 -339 0 -350 0 -20 1 -20 8 -20 1401 l0 1399 38 11 c49 13 248 57 292
64 19 3 46 8 60 11 14 3 45 8 70 11 25 3 52 7 60 9 8 2 38 6 65 10 28 3 66 8
85 10 19 3 73 8 120 11 47 4 86 8 88 9 8 7 444 2 492 -5z m4149 -3855 c103
-60 84 -222 -30 -252 -20 -5 -1173 -9 -2714 -8 -2220 0 -2684 3 -2705 14 -80
43 -102 138 -49 213 11 15 21 28 22 28 1 0 18 6 37 13 28 9 616 12 2720 12
2661 0 2685 0 2719 -20z"/>
<path d="M4831 4199 c-57 -10 -216 -61 -263 -85 l-28 -15 0 -788 0 -789 33 -6
c116 -22 339 -26 443 -9 106 17 223 75 296 147 113 110 183 292 203 526 8 90
8 308 1 370 -3 25 -8 68 -11 95 -26 217 -133 421 -260 497 -81 49 -134 62
-250 64 -60 1 -134 -3 -164 -7z"/>
</g>
</svg>
